<svg width="230" height="54" viewBox="0 0 230 54" fill="none" xmlns="http://www.w3.org/2000/svg">
  <defs>
    <linearGradient id="x_grad" x1="115" y1="0" x2="115" y2="54" gradientUnits="userSpaceOnUse">
      <stop offset="0" stop-color="#333333"/>
      <stop offset="1" stop-color="#000000"/>
    </linearGradient>
    <linearGradient id="x_stroke" x1="115" y1="0" x2="115" y2="54" gradientUnits="userSpaceOnUse">
      <stop offset="0" stop-color="white" stop-opacity="0.5"/>
      <stop offset="1" stop-color="white" stop-opacity="0.1"/>
    </linearGradient>
    <filter id="shadow" x="-4" y="0" width="238" height="60" filterUnits="userSpaceOnUse" color-interpolation-filters="sRGB">
      <feFlood flood-opacity="0" result="BackgroundImageFix"/>
      <feColorMatrix in="SourceAlpha" type="matrix" values="0 0 0 0 0 0 0 0 0 0 0 0 0 0 0 0 0 0 127 0"/>
      <feOffset dy="4"/>
      <feGaussianBlur stdDeviation="3"/>
      <feColorMatrix type="matrix" values="0 0 0 0 0 0 0 0 0 0 0 0 0 0 0 0 0 0 0.4 0"/>
      <feBlend mode="normal" in2="BackgroundImageFix" result="effect1_dropShadow"/>
      <feBlend mode="normal" in="SourceGraphic" in2="effect1_dropShadow" result="shape"/>
    </filter>
  </defs>
  <g filter="url(#shadow)">
    <rect x="4" y="2" width="222" height="46" rx="23" fill="url(#x_grad)"/>
    <rect x="4.5" y="2.5" width="221" height="45" rx="22.5" stroke="url(#x_stroke)" stroke-width="1"/>
    <path d="M714.163 519.284 1160.89 0h-105.86L667.137 450.887 357.328 0H0l468.492 681.821L0 1226.37h105.866l409.625-476.152 327.181 476.152H1200L714.137 519.284h.026ZM569.165 687.828l-47.468-67.894-377.686-540.24h162.604l304.797 435.991 47.468 67.894 396.2 566.721H892.476L569.165 687.854v-.026Z" fill="white" transform="translate(22, 14) scale(0.018)"/>
    <text x="56" y="31" fill="white" font-family="-apple-system, BlinkMacSystemFont, 'Segoe UI', Roboto, Helvetica, Arial, sans-serif" font-size="16" font-weight="bold" style="text-shadow: 0px 1px 2px rgba(0,0,0,0.5);">X (formerly Twitter)</text>
  </g>
</svg>
