<svg width="160" height="54" viewBox="0 0 160 54" fill="none" xmlns="http://www.w3.org/2000/svg">
  <defs>
    <linearGradient id="yt_grad" x1="80" y1="0" x2="80" y2="54" gradientUnits="userSpaceOnUse">
      <stop offset="0" stop-color="#FF3D3D"/>
      <stop offset="1" stop-color="#D90000"/>
    </linearGradient>
    <linearGradient id="yt_stroke" x1="80" y1="0" x2="80" y2="54" gradientUnits="userSpaceOnUse">
      <stop offset="0" stop-color="white" stop-opacity="0.6"/>
      <stop offset="1" stop-color="white" stop-opacity="0.1"/>
    </linearGradient>
    <filter id="shadow" x="-4" y="0" width="168" height="60" filterUnits="userSpaceOnUse" color-interpolation-filters="sRGB">
      <feFlood flood-opacity="0" result="BackgroundImageFix"/>
      <feColorMatrix in="SourceAlpha" type="matrix" values="0 0 0 0 0 0 0 0 0 0 0 0 0 0 0 0 0 0 127 0"/>
      <feOffset dy="4"/>
      <feGaussianBlur stdDeviation="3"/>
      <feColorMatrix type="matrix" values="0 0 0 0 0.6 0 0 0 0 0 0 0 0 0 0 0 0 0 0.35 0"/>
      <feBlend mode="normal" in2="BackgroundImageFix" result="effect1_dropShadow"/>
      <feBlend mode="normal" in="SourceGraphic" in2="effect1_dropShadow" result="shape"/>
    </filter>
  </defs>
  <g filter="url(#shadow)">
    <rect x="4" y="2" width="152" height="46" rx="23" fill="url(#yt_grad)"/>
    <rect x="4.5" y="2.5" width="151" height="45" rx="22.5" stroke="url(#yt_stroke)" stroke-width="1"/>
    <path d="M42.5 17C42.5 17 42.2 15.4 41.3 14.6C40.2 13.4 39 13.4 38.5 13.3C34.9 13 29.8 13 29.8 13C29.8 13 24.7 13 21.1 13.3C20.6 13.4 19.4 13.4 18.3 14.6C17.4 15.4 17.1 17 17.1 17C17.1 17 16.8 18.9 16.8 20.8V22.5C16.8 24.4 17.1 26.3 17.1 26.3C17.1 26.3 17.4 27.9 18.3 28.7C19.4 29.9 20.8 29.8 21.4 29.9C23.7 30.1 29.8 30.2 29.8 30.2C29.8 30.2 34.9 30.2 38.5 29.9C39 29.8 40.2 29.8 41.3 28.7C42.2 27.9 42.5 26.3 42.5 26.3C42.5 26.3 42.8 24.4 42.8 22.5V20.8C42.8 18.9 42.5 17 42.5 17ZM27.2 25.3V17.9L33.6 21.6L27.2 25.3Z" fill="white" transform="translate(0, 4)"/>
    <text x="56" y="32" fill="white" font-family="-apple-system, BlinkMacSystemFont, 'Segoe UI', Roboto, Helvetica, Arial, sans-serif" font-size="18" font-weight="bold" style="text-shadow: 0px 1px 2px rgba(0,0,0,0.3);">YouTube</text>
  </g>
</svg>
